<mxfile host="app.diagrams.net" modified="2024-02-19T19:56:15.134Z" agent="Mozilla/5.0 (Windows NT 10.0; Win64; x64; rv:122.0) Gecko/20100101 Firefox/122.0" etag="LGl2zNA1UGWaxJf5WOvB" version="23.1.5" type="device">
  <diagram name="Page-1" id="74e2e168-ea6b-b213-b513-2b3c1d86103e">
    <mxGraphModel dx="1232" dy="1085" grid="1" gridSize="10" guides="1" tooltips="1" connect="1" arrows="1" fold="1" page="1" pageScale="1" pageWidth="1100" pageHeight="850" background="none" math="0" shadow="0">
      <root>
        <mxCell id="0" />
        <mxCell id="1" parent="0" />
        <mxCell id="g-Ep9odWdFlU7-CTPNt9-3" value="" style="edgeStyle=orthogonalEdgeStyle;rounded=0;orthogonalLoop=1;jettySize=auto;html=1;" parent="1" source="g-Ep9odWdFlU7-CTPNt9-1" target="g-Ep9odWdFlU7-CTPNt9-2" edge="1">
          <mxGeometry relative="1" as="geometry" />
        </mxCell>
        <mxCell id="g-Ep9odWdFlU7-CTPNt9-1" value="Nutzer startet Applikation im Trainingsmodus" style="ellipse;whiteSpace=wrap;html=1;" parent="1" vertex="1">
          <mxGeometry x="80" y="30" width="120" height="80" as="geometry" />
        </mxCell>
        <mxCell id="g-Ep9odWdFlU7-CTPNt9-5" value="" style="edgeStyle=orthogonalEdgeStyle;rounded=0;orthogonalLoop=1;jettySize=auto;html=1;entryX=0.5;entryY=0;entryDx=0;entryDy=0;" parent="1" source="g-Ep9odWdFlU7-CTPNt9-2" target="g-Ep9odWdFlU7-CTPNt9-6" edge="1">
          <mxGeometry relative="1" as="geometry">
            <mxPoint x="140" y="210" as="targetPoint" />
          </mxGeometry>
        </mxCell>
        <mxCell id="g-Ep9odWdFlU7-CTPNt9-2" value="Nutzer übergibt eine Trainings-Datenset" style="whiteSpace=wrap;html=1;" parent="1" vertex="1">
          <mxGeometry x="80" y="130" width="120" height="60" as="geometry" />
        </mxCell>
        <mxCell id="g-Ep9odWdFlU7-CTPNt9-9" value="" style="edgeStyle=orthogonalEdgeStyle;rounded=0;orthogonalLoop=1;jettySize=auto;html=1;" parent="1" source="g-Ep9odWdFlU7-CTPNt9-6" target="g-Ep9odWdFlU7-CTPNt9-8" edge="1">
          <mxGeometry relative="1" as="geometry" />
        </mxCell>
        <mxCell id="g-Ep9odWdFlU7-CTPNt9-21" value="JA" style="edgeLabel;html=1;align=center;verticalAlign=middle;resizable=0;points=[];" parent="g-Ep9odWdFlU7-CTPNt9-9" vertex="1" connectable="0">
          <mxGeometry x="0.6" y="-1" relative="1" as="geometry">
            <mxPoint as="offset" />
          </mxGeometry>
        </mxCell>
        <mxCell id="g-Ep9odWdFlU7-CTPNt9-37" style="edgeStyle=orthogonalEdgeStyle;rounded=0;orthogonalLoop=1;jettySize=auto;html=1;entryX=0;entryY=0.5;entryDx=0;entryDy=0;" parent="1" source="g-Ep9odWdFlU7-CTPNt9-6" target="g-Ep9odWdFlU7-CTPNt9-36" edge="1">
          <mxGeometry relative="1" as="geometry" />
        </mxCell>
        <mxCell id="g-Ep9odWdFlU7-CTPNt9-40" value="Nein" style="edgeLabel;html=1;align=center;verticalAlign=middle;resizable=0;points=[];" parent="g-Ep9odWdFlU7-CTPNt9-37" vertex="1" connectable="0">
          <mxGeometry x="-0.6" y="-1" relative="1" as="geometry">
            <mxPoint x="2" y="-1" as="offset" />
          </mxGeometry>
        </mxCell>
        <mxCell id="g-Ep9odWdFlU7-CTPNt9-6" value="&lt;div&gt;Sind die&amp;nbsp;&lt;/div&gt;&lt;div&gt;Daten Standard MNIST-&lt;/div&gt;&lt;div&gt;Datensets&lt;/div&gt;" style="rhombus;whiteSpace=wrap;html=1;" parent="1" vertex="1">
          <mxGeometry x="80" y="210" width="120" height="100" as="geometry" />
        </mxCell>
        <mxCell id="g-Ep9odWdFlU7-CTPNt9-11" value="" style="edgeStyle=orthogonalEdgeStyle;rounded=0;orthogonalLoop=1;jettySize=auto;html=1;" parent="1" source="g-Ep9odWdFlU7-CTPNt9-8" target="g-Ep9odWdFlU7-CTPNt9-10" edge="1">
          <mxGeometry relative="1" as="geometry" />
        </mxCell>
        <mxCell id="g-Ep9odWdFlU7-CTPNt9-8" value="einzelnen Datensatz auslesen" style="whiteSpace=wrap;html=1;" parent="1" vertex="1">
          <mxGeometry x="80" y="340" width="120" height="60" as="geometry" />
        </mxCell>
        <mxCell id="g-Ep9odWdFlU7-CTPNt9-13" value="" style="edgeStyle=orthogonalEdgeStyle;rounded=0;orthogonalLoop=1;jettySize=auto;html=1;" parent="1" source="g-Ep9odWdFlU7-CTPNt9-10" target="g-Ep9odWdFlU7-CTPNt9-12" edge="1">
          <mxGeometry relative="1" as="geometry" />
        </mxCell>
        <mxCell id="g-Ep9odWdFlU7-CTPNt9-10" value="CNN-Magic (siehe eigenes Ablaufsdiagramm)" style="whiteSpace=wrap;html=1;" parent="1" vertex="1">
          <mxGeometry x="80" y="420" width="120" height="60" as="geometry" />
        </mxCell>
        <mxCell id="g-Ep9odWdFlU7-CTPNt9-15" value="" style="edgeStyle=orthogonalEdgeStyle;rounded=0;orthogonalLoop=1;jettySize=auto;html=1;" parent="1" source="g-Ep9odWdFlU7-CTPNt9-12" target="g-Ep9odWdFlU7-CTPNt9-14" edge="1">
          <mxGeometry relative="1" as="geometry" />
        </mxCell>
        <mxCell id="g-Ep9odWdFlU7-CTPNt9-12" value="10 Outputs al Dezimalzahl erhalten" style="whiteSpace=wrap;html=1;" parent="1" vertex="1">
          <mxGeometry x="80" y="500" width="120" height="60" as="geometry" />
        </mxCell>
        <mxCell id="g-Ep9odWdFlU7-CTPNt9-17" value="" style="edgeStyle=orthogonalEdgeStyle;rounded=0;orthogonalLoop=1;jettySize=auto;html=1;entryX=0;entryY=0.5;entryDx=0;entryDy=0;" parent="1" source="g-Ep9odWdFlU7-CTPNt9-14" target="g-Ep9odWdFlU7-CTPNt9-18" edge="1">
          <mxGeometry relative="1" as="geometry">
            <mxPoint x="140" y="660" as="targetPoint" />
            <Array as="points">
              <mxPoint x="220" y="610" />
              <mxPoint x="220" y="555" />
            </Array>
          </mxGeometry>
        </mxCell>
        <mxCell id="g-Ep9odWdFlU7-CTPNt9-14" value="höchsten Output ermittel und dessen korrespondierende Ziffer" style="whiteSpace=wrap;html=1;" parent="1" vertex="1">
          <mxGeometry x="80" y="580" width="120" height="60" as="geometry" />
        </mxCell>
        <mxCell id="g-Ep9odWdFlU7-CTPNt9-24" value="" style="edgeStyle=orthogonalEdgeStyle;rounded=0;orthogonalLoop=1;jettySize=auto;html=1;exitX=0.5;exitY=1;exitDx=0;exitDy=0;" parent="1" source="g-Ep9odWdFlU7-CTPNt9-18" target="g-Ep9odWdFlU7-CTPNt9-23" edge="1">
          <mxGeometry relative="1" as="geometry">
            <Array as="points">
              <mxPoint x="350" y="610" />
            </Array>
          </mxGeometry>
        </mxCell>
        <mxCell id="g-Ep9odWdFlU7-CTPNt9-25" value="JA" style="edgeLabel;html=1;align=center;verticalAlign=middle;resizable=0;points=[];" parent="g-Ep9odWdFlU7-CTPNt9-24" vertex="1" connectable="0">
          <mxGeometry x="0.5333" y="2" relative="1" as="geometry">
            <mxPoint as="offset" />
          </mxGeometry>
        </mxCell>
        <mxCell id="g-Ep9odWdFlU7-CTPNt9-32" value="" style="edgeStyle=orthogonalEdgeStyle;rounded=0;orthogonalLoop=1;jettySize=auto;html=1;" parent="1" source="g-Ep9odWdFlU7-CTPNt9-18" target="g-Ep9odWdFlU7-CTPNt9-31" edge="1">
          <mxGeometry relative="1" as="geometry" />
        </mxCell>
        <mxCell id="g-Ep9odWdFlU7-CTPNt9-33" value="Nein" style="edgeLabel;html=1;align=center;verticalAlign=middle;resizable=0;points=[];" parent="g-Ep9odWdFlU7-CTPNt9-32" vertex="1" connectable="0">
          <mxGeometry x="-0.075" y="1" relative="1" as="geometry">
            <mxPoint as="offset" />
          </mxGeometry>
        </mxCell>
        <mxCell id="g-Ep9odWdFlU7-CTPNt9-18" value="&lt;div&gt;Abgleich der&lt;/div&gt;&lt;div&gt;&amp;nbsp;Ziffer mit dem erwarteten Ergebnis ist&amp;nbsp;&lt;/div&gt;&lt;div&gt;kongruent&lt;/div&gt;" style="rhombus;whiteSpace=wrap;html=1;" parent="1" vertex="1">
          <mxGeometry x="260" y="510" width="180" height="90" as="geometry" />
        </mxCell>
        <mxCell id="g-Ep9odWdFlU7-CTPNt9-26" style="edgeStyle=orthogonalEdgeStyle;rounded=0;orthogonalLoop=1;jettySize=auto;html=1;entryX=0;entryY=0.5;entryDx=0;entryDy=0;exitX=0.5;exitY=1;exitDx=0;exitDy=0;" parent="1" source="g-Ep9odWdFlU7-CTPNt9-23" target="g-Ep9odWdFlU7-CTPNt9-8" edge="1">
          <mxGeometry relative="1" as="geometry">
            <Array as="points">
              <mxPoint x="40" y="740" />
              <mxPoint x="40" y="370" />
            </Array>
          </mxGeometry>
        </mxCell>
        <mxCell id="g-Ep9odWdFlU7-CTPNt9-27" value="JA" style="edgeLabel;html=1;align=center;verticalAlign=middle;resizable=0;points=[];" parent="g-Ep9odWdFlU7-CTPNt9-26" vertex="1" connectable="0">
          <mxGeometry x="-0.3529" y="-1" relative="1" as="geometry">
            <mxPoint as="offset" />
          </mxGeometry>
        </mxCell>
        <mxCell id="g-Ep9odWdFlU7-CTPNt9-29" value="" style="edgeStyle=orthogonalEdgeStyle;rounded=0;orthogonalLoop=1;jettySize=auto;html=1;" parent="1" source="g-Ep9odWdFlU7-CTPNt9-23" target="g-Ep9odWdFlU7-CTPNt9-28" edge="1">
          <mxGeometry relative="1" as="geometry" />
        </mxCell>
        <mxCell id="g-Ep9odWdFlU7-CTPNt9-30" value="Nein" style="edgeLabel;html=1;align=center;verticalAlign=middle;resizable=0;points=[];" parent="g-Ep9odWdFlU7-CTPNt9-29" vertex="1" connectable="0">
          <mxGeometry x="0.6667" y="-1" relative="1" as="geometry">
            <mxPoint as="offset" />
          </mxGeometry>
        </mxCell>
        <mxCell id="g-Ep9odWdFlU7-CTPNt9-23" value="&lt;div&gt;Sind noch&lt;/div&gt;&lt;div&gt;&amp;nbsp;Daten, vorhanden welche bislang nicht behandelt&amp;nbsp;&lt;/div&gt;&lt;div&gt;wurden?&lt;/div&gt;" style="rhombus;whiteSpace=wrap;html=1;" parent="1" vertex="1">
          <mxGeometry x="450" y="610" width="140" height="130" as="geometry" />
        </mxCell>
        <mxCell id="g-Ep9odWdFlU7-CTPNt9-28" value="Training wird beendet" style="ellipse;whiteSpace=wrap;html=1;" parent="1" vertex="1">
          <mxGeometry x="390" y="440" width="120" height="80" as="geometry" />
        </mxCell>
        <mxCell id="g-Ep9odWdFlU7-CTPNt9-34" style="edgeStyle=orthogonalEdgeStyle;rounded=0;orthogonalLoop=1;jettySize=auto;html=1;entryX=1;entryY=0.5;entryDx=0;entryDy=0;exitX=1;exitY=0.5;exitDx=0;exitDy=0;" parent="1" source="g-Ep9odWdFlU7-CTPNt9-31" target="g-Ep9odWdFlU7-CTPNt9-23" edge="1">
          <mxGeometry relative="1" as="geometry">
            <Array as="points">
              <mxPoint x="590" y="400" />
            </Array>
          </mxGeometry>
        </mxCell>
        <mxCell id="g-Ep9odWdFlU7-CTPNt9-31" value="Anpassung der einzelnen Knotenpunkte in den FC-Layern" style="whiteSpace=wrap;html=1;" parent="1" vertex="1">
          <mxGeometry x="260" y="370" width="120" height="60" as="geometry" />
        </mxCell>
        <mxCell id="g-Ep9odWdFlU7-CTPNt9-36" value="Error, dass das Datenset nicht den Anforderungen entspricht" style="ellipse;whiteSpace=wrap;html=1;" parent="1" vertex="1">
          <mxGeometry x="270" y="210" width="120" height="80" as="geometry" />
        </mxCell>
      </root>
    </mxGraphModel>
  </diagram>
</mxfile>
